PathFileType	4	(X/Y/Z)	Trial11_HipL_markers_cropped.trc
DataRate	CameraRate	NumFrames	NumMarkers	Units	OrigDataRate	OrigDataStartFrame	OrigNumFrames
200	200	7	27	m	200	12	101
Frame#	Time	R_ASIS			L_ASIS			Sacral			L_Thigh_Superior			L_Thigh_Posterior			L_Thigh_Inferior			L_Thigh_Lateral			L_Shank_Posterior			L_Shank_Superior			L_Shank_Lateral			L_Shank_Inferior			L_Midfoot_Superior			L_Heel			L_Midfoot_Lateral			L_Toe			R_Thigh_Posterior			R_Thigh_Superior			R_Thigh_Lateral			R_Thigh_Inferior			R_Shank_Posterior			R_Shank_Superior			R_Shank_Lateral			R_Shank_Inferior			R_Midfoot_Superior			R_Heel			R_Midfoot_Lateral			R_Toe
		X1	Y1	Z1	X2	Y2	Z2	X3	Y3	Z3	X4	Y4	Z4	X5	Y5	Z5	X6	Y6	Z6	X7	Y7	Z7	X8	Y8	Z8	X9	Y9	Z9	X10	Y10	Z10	X11	Y11	Z11	X12	Y12	Z12	X13	Y13	Z13	X14	Y14	Z14	X15	Y15	Z15	X16	Y16	Z16	X17	Y17	Z17	X18	Y18	Z18	X19	Y19	Z19	X20	Y20	Z20	X21	Y21	Z21	X22	Y22	Z22	X23	Y23	Z23	X24	Y24	Z24	X25	Y25	Z25	X26	Y26	Z26	X27	Y27	Z27

13	   0.060	    1.09148963251777	    0.96267788204644	    0.68604643927953	    1.03520692513727	    1.04139821197623	    0.44905934068191	    0.88436773644499	    1.06204257005806	    0.63889623437629	    0.99509365563236	    0.93918608104293	    0.29354565258087	    0.92581797797823	    0.91112659848155	    0.29942824799092	    1.01327762742099	    0.87252063068016	    0.22771716244867	    0.93871622749170	    0.84668307773757	    0.23720040705664	    0.91642322636527	    0.66896768646947	    0.04255278327184	    0.98534071658714	    0.66960614527769	    0.01171311092426	    0.90691730113875	    0.62322969703156	   -0.01177341643248	    0.96977740926142	    0.63118225983544	   -0.02995117313908	    1.03517959902029	    0.44990351467556	   -0.16222055295278	    0.88374435584953	    0.35284556343262	   -0.14676836960890	    0.95294372906721	    0.41890010495574	   -0.22164762234525	    1.15002880674529	    0.45456428534629	   -0.22814674822847	    1.00062860895307	    0.75088451258608	    0.72346775243473	    1.07412669854161	    0.75248363335411	    0.70642741231792	    1.00445555663031	    0.65241325526442	    0.70800624101179	    1.07442937535050	    0.65725036025723	    0.69524326683724	    0.95769149167692	    0.33518187930562	    0.66151388082370	    1.03165677335455	    0.32434257877275	    0.64315111990656	    0.95200464467502	    0.26710526263675	    0.64027496960949	    1.02275507794280	    0.26786193608167	    0.62472355241135	    1.04487314157777	    0.08842174671368	    0.53243770182407	    0.87540379618893	    0.04473955637037	    0.49556294212826	    0.96885816018127	    0.01279008821003	    0.57231697617719	    1.16844135888771	    0.04300368378155	    0.54281262932420
14	   0.065	    1.09232728876969	    0.96281011725241	    0.68288458127400	    1.03316436643756	    1.05125085576716	    0.44946066776195	    0.88482104484252	    1.06515421586422	    0.64141413974016	    0.99030814288897	    0.96477241562848	    0.28994967242814	    0.92155900947935	    0.93518237425309	    0.29459746146040	    1.00827286695238	    0.90408321098249	    0.21858088915750	    0.93434890679161	    0.87639291685349	    0.22696280345645	    0.91251558314452	    0.71576157487509	    0.01779401884904	    0.98095999264833	    0.71997952584292	   -0.01371074084775	    0.90282153901783	    0.67477106982806	   -0.04017417195385	    0.96527988417291	    0.68518038865714	   -0.05840875952315	    1.03148264403727	    0.51620301558095	   -0.20672931250629	    0.88088267200570	    0.41707809101358	   -0.19843539489483	    0.94896818337086	    0.48990946097065	   -0.26805337831466	    1.14572978547483	    0.52731143995579	   -0.27284116296159	    0.99957320858470	    0.75297200471449	    0.71647771263249	    1.07331882755606	    0.75493324778011	    0.70050210573382	    1.00419897662191	    0.65445937267476	    0.70146564836932	    1.07433112189653	    0.65964046353255	    0.68982069349429	    0.95856401805820	    0.33754387330282	    0.65862566642607	    1.03265588919321	    0.32585709246396	    0.64090801035684	    0.95258680080991	    0.26906213747532	    0.63886804803969	    1.02338815069209	    0.26887147185071	    0.62350867316871	    1.04503342099963	    0.08845920183826	    0.53222808468555	    0.87541978280339	    0.04483179674538	    0.49557036486062	    0.96882893055095	    0.01286978727665	    0.57244678976209	    1.16839473142128	    0.04330618301139	    0.54261595539781
15	   0.070	    1.09190783242990	    0.96216884684965	    0.67803284464396	    1.03176056590863	    1.06093735813374	    0.44876836358736	    0.88487058998598	    1.06778840979680	    0.64179013597303	    0.98611545432225	    0.98903705469103	    0.28588194351240	    0.91788439753935	    0.95816479838256	    0.28915748478590	    1.00384776207526	    0.93417057594788	    0.20991726501231	    0.93061356642527	    0.90455679213363	    0.21734002897976	    0.90955747543418	    0.76084658727999	   -0.00412380467582	    0.97763532735841	    0.76830059238173	   -0.03561730897835	    0.89975987602282	    0.72436755699910	   -0.06495673818651	    0.96191663092593	    0.73694304351266	   -0.08278769177343	    1.02913439966652	    0.57968818101907	   -0.24449524192044	    0.87845495575239	    0.48030971445331	   -0.24358951126836	    0.94655563938927	    0.55815965785870	   -0.30751815189294	    1.14339455476321	    0.59564788541767	   -0.30962490806851	    0.99661937008968	    0.75519505733594	    0.70838245537352	    1.07077254544204	    0.75732760063007	    0.69475146826659	    1.00216017371086	    0.65660574341385	    0.69438490929208	    1.07259024077001	    0.66198738080245	    0.68500469946700	    0.95860137344789	    0.34014264647823	    0.65456824260294	    1.03299682047006	    0.32729044897025	    0.63875197512777	    0.95227245761364	    0.27136574468472	    0.63599023611001	    1.02342737508797	    0.27008945413550	    0.62217698154691	    1.04528282197909	    0.08845368222012	    0.53225374361497	    0.87549698951073	    0.04496368916222	    0.49550131265625	    0.96881068357503	    0.01297414976434	    0.57247312626397	    1.16845651944637	    0.04313008106656	    0.54276409939800
16	   0.075	    1.09066053328101	    0.96074475044996	    0.67240179321780	    1.03060513963044	    1.06891162944967	    0.44719524868288	    0.88435396569723	    1.06947336240803	    0.64025658067498	    0.98264969834721	    1.01066571466526	    0.28187318458843	    0.91495588576868	    0.97852391982193	    0.28380038274550	    1.00029541427243	    0.96149021070371	    0.20211690055549	    0.92762664469394	    0.93030726494379	    0.20818613193893	    0.90765137384825	    0.80350252692501	   -0.02330315972166	    0.97555255542102	    0.81341811427566	   -0.05443085145878	    0.89763196021953	    0.77160237155414	   -0.08660942180891	    0.95967039353786	    0.78539068177075	   -0.10362987029575	    1.02664533248188	    0.64044440287888	   -0.27692487319327	    0.87593917642524	    0.54151030703272	   -0.28321739753587	    0.94387031078756	    0.62360995054096	   -0.34092983952752	    1.14074431710511	    0.66136156775790	   -0.34085647854220	    0.99230683801304	    0.75677924732705	    0.69957551408785	    1.06703182662993	    0.75915460729494	    0.68894211344159	    0.99883787159054	    0.65807156537293	    0.68696673580292	    1.06958697197148	    0.66368641436028	    0.68049606375383	    0.95889211956401	    0.34218302799288	    0.64901860633896	    1.03348847671332	    0.32803774806331	    0.63551568873873	    0.95214130610435	    0.27331423084048	    0.63071906174931	    1.02365018311490	    0.27091358356049	    0.61923973525670	    1.04570051312746	    0.08816747158595	    0.53205829221112	    0.87566684490678	    0.04514752884205	    0.49525607099966	    0.96880588055258	    0.01322899260543	    0.57263217083495	    1.16869549578178	    0.04208803041531	    0.54298659028392
17	   0.080	    1.08978842014129	    0.95968212998207	    0.66588676360735	    1.02880314250560	    1.07526438747619	    0.44444241891312	    0.88112652635537	    1.07030818292935	    0.63779472426434	    0.98004898273345	    1.02840893982205	    0.27899430515643	    0.91248809720043	    0.99578635112063	    0.27884835534910	    0.99793689254741	    0.98467540610030	    0.19620022767933	    0.92542952075741	    0.95251539465167	    0.20030041486613	    0.90667361948675	    0.84174767153463	   -0.03906447664180	    0.97446965043118	    0.85340679072662	   -0.06958172981876	    0.89634754574608	    0.81403836127606	   -0.10422486628232	    0.95844686825523	    0.82874341365648	   -0.12047050476588	    1.02452489423276	    0.69573349532810	   -0.30337980438110	    0.87422003846863	    0.59678427634969	   -0.31556782960334	    0.94124204375143	    0.68310663893281	   -0.36757983903609	    1.13791335104954	    0.72181819686983	   -0.36649011297673	    0.99004003123172	    0.75751197322058	    0.69071221468467	    1.06497556817622	    0.76038098259965	    0.68121214265339	    0.99751806959880	    0.65875763211641	    0.67933198288821	    1.06832814306554	    0.66486642844200	    0.67385074262122	    0.96036908267021	    0.34335178056769	    0.64342336225544	    1.03502055851220	    0.32851575164564	    0.63092764554378	    0.95322257414942	    0.27448091388255	    0.62535243719906	    1.02486536770117	    0.27137295928610	    0.61473413535100	    1.04612680513385	    0.08792819449316	    0.53144303392711	    0.87581917706795	    0.04523178897494	    0.49490397388169	    0.96890130624518	    0.01371410773189	    0.57254588627029	    1.16904763423562	    0.04099095627593	    0.54311676428673
18	   0.085	    1.08934212589043	    0.95926498311425	    0.65888801895794	    1.02688662283689	    1.08064285514090	    0.44124209507910	    0.88018502732537	    1.07012488610399	    0.63515042330945	    0.97609049987822	    1.04258601792826	    0.27547705322185	    0.90906211731202	    1.00889692394575	    0.27441436407474	    0.99397271404580	    1.00288527955872	    0.19070239891198	    0.92207656688674	    0.96949188793802	    0.19383754937858	    0.90440804195985	    0.87013217785643	   -0.05089932028000	    0.97215324108207	    0.88443505826511	   -0.08063860017850	    0.89458390300066	    0.84600018477465	   -0.11752795240624	    0.95655707099808	    0.86240987344176	   -0.13286627588232	    1.02442548675872	    0.74037984533204	   -0.32256149446884	    0.87611460295671	    0.63934944157037	   -0.34040318825763	    0.94105454722849	    0.73021906667228	   -0.38703908875754	    1.13707259937897	    0.77269463012233	   -0.38419874503618	    0.98964630319232	    0.75834410155345	    0.68278293255499	    1.06441071181431	    0.76180352776454	    0.67235617507907	    0.99788068280998	    0.65960092684024	    0.67197729431536	    1.06847956783884	    0.66616606917395	    0.66570686268473	    0.96244695879769	    0.34447242006467	    0.63846320764553	    1.03698222715381	    0.32928900670066	    0.62573942570712	    0.95499424626437	    0.27544710687453	    0.62100671622615	    1.02656868265620	    0.27201393876869	    0.61006783121828	    1.04635373836278	    0.08793880532202	    0.53060404427724	    0.87590230036863	    0.04518976129420	    0.49463842556634	    0.96901864586196	    0.01421835093561	    0.57256994944254	    1.16932652088773	    0.04038136283843	    0.54301665372691
19	   0.090	    1.08942422844179	    0.95942724254132	    0.65268193851379	    1.02479747999837	    1.08432127765741	    0.43771530243849	    0.88008031190516	    1.06952642072844	    0.63219229350391	    0.97219590868355	    1.05126030954971	    0.27147765602932	    0.90573446910673	    1.01648996602198	    0.27011459330346	    0.99003102045325	    1.01407556573562	    0.18555585513772	    0.91871039479681	    0.97940890412609	    0.18838135998371	    0.90268427391684	    0.88724386073110	   -0.05938795533667	    0.97043343949790	    0.90330730431296	   -0.08836016245300	    0.89345908025885	    0.86530457946384	   -0.12688688232133	    0.95530184317920	    0.88287200758026	   -0.14134828367376	    1.02510901379322	    0.76819260046139	   -0.33438122383848	    0.87875558451825	    0.66524806697878	   -0.35667674752262	    0.94196707473595	    0.75936440674389	   -0.39974468886322	    1.13735527647034	    0.80504138355911	   -0.39428465798303	    0.98858632782918	    0.75869819594830	    0.67682326790382	    1.06319696553565	    0.76222209958979	    0.66587637479746	    0.99697021353833	    0.65997954747036	    0.66580818887590	    1.06753411786968	    0.66674879775209	    0.65922392251397	    0.96337847351145	    0.34527452730643	    0.63407535182922	    1.03779216527856	    0.33020431393464	    0.62053110401710	    0.95593092365765	    0.27610037681743	    0.61717033942753	    1.02732669750554	    0.27278980367547	    0.60538420178979	    1.04635940603271	    0.08822429001233	    0.52936500602277	    0.87600417354441	    0.04494726184116	    0.49453035202500	    0.96925945688772	    0.01485387550314	    0.57228732632703	    1.16939281078203	    0.04046111501437	    0.54247931567852
